<svg width="133" height="29" viewBox="0 0 133 29" fill="none" xmlns="http://www.w3.org/2000/svg">
<path d="M67.396 6.81128C68.7053 6.86231 69.6065 8.64772 69.7085 9.03882C69.8105 9.4299 69.8105 10.0077 69.1646 10.0417C68.5184 10.0758 68.3483 9.775 67.8042 9.68433C67.7306 9.67206 67.5999 9.66772 67.5659 9.66772C67.4639 9.66773 67.3328 9.67672 67.2935 9.68433C67.1175 9.71842 66.6642 9.82386 66.2563 9.97339C65.7462 10.1604 64.9648 10.0248 65.1177 9.12378C65.2707 8.22254 66.0866 6.76027 67.396 6.81128ZM64.1733 5.4021C64.6097 5.18457 65.2055 5.49432 65.5044 6.09351C65.8032 6.69274 65.6918 7.35434 65.2554 7.57202C64.819 7.78957 64.2232 7.48075 63.9243 6.88159C63.6254 6.28232 63.7369 5.6198 64.1733 5.4021ZM69.0942 6.02515C69.3675 5.40733 69.9538 5.06762 70.4038 5.26636C70.8539 5.46534 70.9973 6.12784 70.7241 6.74585C70.4509 7.36387 69.8646 7.7036 69.4146 7.50464C68.9645 7.30565 68.821 6.64318 69.0942 6.02515ZM67.4849 4.27515C67.6741 3.57206 68.2423 3.11314 68.7544 3.25073C69.2665 3.38859 69.5287 4.07095 69.3394 4.77417C69.15 5.47737 68.581 5.93546 68.0688 5.79761C67.5569 5.65961 67.2957 4.97818 67.4849 4.27515ZM65.8423 3.23511C66.3553 3.10071 66.9204 3.56285 67.105 4.26733C67.2894 4.97172 67.0232 5.6515 66.5103 5.78589C65.9973 5.92005 65.4321 5.45801 65.2476 4.75366C65.063 4.04919 65.3293 3.36952 65.8423 3.23511Z" fill="url(#paint0_linear_1_675)"/>
<path d="M101.272 10.1349L103.662 3.22705H104.577L101.329 12.1349C101.263 12.3098 101.178 12.5036 101.074 12.7164C100.974 12.9292 100.842 13.1325 100.676 13.3263C100.516 13.5249 100.312 13.6857 100.067 13.8086C99.8254 13.9363 99.5299 14.0001 99.18 14.0001C99.0902 14.0001 98.9744 13.9883 98.8325 13.9646C98.6954 13.9457 98.5961 13.9268 98.5347 13.9079L98.5276 13.1916C98.5796 13.2058 98.6552 13.2176 98.7545 13.227C98.8538 13.2365 98.9224 13.2412 98.9602 13.2412C99.2675 13.2412 99.5252 13.1892 99.7332 13.0852C99.946 12.9812 100.123 12.8252 100.265 12.6171C100.407 12.4138 100.532 12.1585 100.641 11.8512L101.272 10.1349ZM99.0382 3.22705L101.485 9.8157L101.712 10.7022L101.095 11.0497L98.1162 3.22705H99.0382Z" fill="#999999"/>
<path d="M87.4985 4.81546V10.9006H86.6475V3.2268H87.4631L87.4985 4.81546ZM87.3425 6.58851L86.9311 6.37574C86.9595 5.92184 87.0446 5.49631 87.1865 5.09915C87.333 4.70198 87.5363 4.3521 87.7964 4.0495C88.0564 3.7469 88.3685 3.51049 88.7326 3.34028C89.0966 3.17007 89.5103 3.08496 89.9737 3.08496C90.3472 3.08496 90.6853 3.13697 90.9879 3.24099C91.2952 3.34028 91.5553 3.49867 91.768 3.71617C91.9855 3.92893 92.1534 4.20789 92.2716 4.55305C92.3898 4.8982 92.4489 5.31191 92.4489 5.79418V10.9006H91.6049V5.82255C91.6049 5.31191 91.5245 4.91238 91.3638 4.62397C91.2077 4.33555 90.9879 4.12988 90.7042 4.00695C90.4252 3.88402 90.1014 3.82255 89.7326 3.82255C89.2976 3.82255 88.9288 3.91238 88.6262 4.09205C88.3283 4.26699 88.0848 4.49631 87.8957 4.78C87.7113 5.05896 87.5742 5.35919 87.4843 5.68071C87.3945 5.99749 87.3472 6.30009 87.3425 6.58851ZM92.4418 5.92184L91.8744 5.93602C91.8981 5.5625 91.9832 5.20553 92.1297 4.8651C92.281 4.52468 92.4867 4.22208 92.7468 3.9573C93.0068 3.6878 93.3165 3.47503 93.6758 3.319C94.0399 3.16298 94.4489 3.08496 94.9028 3.08496C95.2999 3.08496 95.6546 3.13933 95.9666 3.24808C96.2787 3.3521 96.5411 3.51995 96.7538 3.75163C96.9713 3.97858 97.1368 4.26936 97.2503 4.62397C97.3638 4.97858 97.4205 5.40411 97.4205 5.90056V10.9006H96.5694V5.89347C96.5694 5.34974 96.4891 4.92893 96.3283 4.63106C96.1723 4.32846 95.9548 4.11806 95.6758 3.99985C95.3969 3.88165 95.0706 3.82255 94.6971 3.82255C94.3283 3.82728 94.0044 3.89584 93.7255 4.02822C93.4465 4.15588 93.2125 4.3261 93.0233 4.53886C92.839 4.7469 92.6971 4.97149 92.5978 5.21262C92.5033 5.45376 92.4512 5.69016 92.4418 5.92184Z" fill="#999999"/>
<path d="M78.668 7.18425V6.95021C78.668 6.39229 78.7483 5.87692 78.9091 5.40411C79.0699 4.9313 79.2992 4.52231 79.597 4.17716C79.8996 3.83201 80.2613 3.56487 80.6822 3.37574C81.103 3.18189 81.571 3.08496 82.0864 3.08496C82.6065 3.08496 83.077 3.18189 83.4978 3.37574C83.9186 3.56487 84.2803 3.83201 84.5829 4.17716C84.8855 4.52231 85.1171 4.9313 85.2779 5.40411C85.4387 5.87692 85.519 6.39229 85.519 6.95021V7.18425C85.519 7.74217 85.4387 8.25754 85.2779 8.73035C85.1171 9.19844 84.8855 9.60506 84.5829 9.95021C84.285 10.2954 83.9257 10.5649 83.5048 10.7587C83.084 10.9478 82.616 11.0424 82.1006 11.0424C81.5805 11.0424 81.11 10.9478 80.6892 10.7587C80.2684 10.5649 79.9067 10.2954 79.6041 9.95021C79.3015 9.60506 79.0699 9.19844 78.9091 8.73035C78.7483 8.25754 78.668 7.74217 78.668 7.18425ZM79.5119 6.95021V7.18425C79.5119 7.60506 79.5687 8.00458 79.6822 8.38283C79.7956 8.75636 79.9611 9.08969 80.1786 9.38283C80.3961 9.67125 80.6656 9.8982 80.9871 10.0637C81.3086 10.2292 81.6798 10.3119 82.1006 10.3119C82.5167 10.3119 82.8831 10.2292 83.1999 10.0637C83.5214 9.8982 83.7909 9.67125 84.0084 9.38283C84.2259 9.08969 84.389 8.75636 84.4978 8.38283C84.6112 8.00458 84.668 7.60506 84.668 7.18425V6.95021C84.668 6.53413 84.6112 6.13933 84.4978 5.76581C84.389 5.39229 84.2235 5.05896 84.0013 4.76581C83.7838 4.47267 83.5143 4.24099 83.1928 4.07078C82.8713 3.90056 82.5025 3.81546 82.0864 3.81546C81.6703 3.81546 81.3015 3.90056 80.98 4.07078C80.6632 4.24099 80.3937 4.47267 80.1715 4.76581C79.954 5.05896 79.7885 5.39229 79.6751 5.76581C79.5663 6.13933 79.5119 6.53413 79.5119 6.95021Z" fill="#999999"/>
<path d="M72.5754 4.8651V10.9006H71.7314V3.2268H72.54L72.5754 4.8651ZM72.3839 6.58851L72.008 6.37574C72.0364 5.92184 72.1286 5.49631 72.2846 5.09915C72.4407 4.70198 72.6511 4.3521 72.9158 4.0495C73.1853 3.7469 73.4998 3.51049 73.8591 3.34028C74.2232 3.17007 74.6251 3.08496 75.0648 3.08496C75.4478 3.08496 75.7905 3.13697 76.0931 3.24099C76.3957 3.34501 76.6534 3.51049 76.8662 3.73744C77.079 3.96439 77.2397 4.25517 77.3485 4.60978C77.4619 4.96439 77.5187 5.39702 77.5187 5.90766V10.9006H76.6676V5.90056C76.6676 5.37101 76.5943 4.9573 76.4478 4.65943C76.3012 4.35683 76.0931 4.1417 75.8236 4.01404C75.5541 3.88638 75.235 3.82255 74.8662 3.82255C74.4596 3.82255 74.1026 3.91238 73.7953 4.09205C73.4927 4.26699 73.2374 4.49631 73.0293 4.78C72.826 5.05896 72.67 5.35919 72.5612 5.68071C72.4525 5.99749 72.3934 6.30009 72.3839 6.58851Z" fill="#999999"/>
<path d="M58.6588 0V10.9007H56.6162V0H58.6588ZM63.4956 3.22695L60.1623 7.02837L58.3751 8.83688L57.6304 7.3617L59.0488 5.56028L61.0417 3.22695H63.4956ZM61.3751 10.9007L59.1056 7.35461L60.5169 6.12057L63.7297 10.9007H61.3751Z" fill="#999999"/>
<path d="M53.9215 4.90056V10.9006H51.8789V3.2268H53.8009L53.9215 4.90056ZM56.2335 3.17716L56.1981 5.07078C56.0988 5.05659 55.9782 5.04477 55.8364 5.03532C55.6992 5.02113 55.5739 5.01404 55.4605 5.01404C55.1721 5.01404 54.9215 5.05186 54.7087 5.12751C54.5007 5.19844 54.3257 5.30482 54.1839 5.44666C54.0468 5.58851 53.9427 5.76108 53.8718 5.96439C53.8056 6.1677 53.7678 6.39938 53.7583 6.65943L53.347 6.53177C53.347 6.03532 53.3966 5.57905 53.4959 5.16298C53.5952 4.74217 53.7394 4.37574 53.9286 4.06368C54.1224 3.75163 54.3588 3.51049 54.6378 3.34028C54.9167 3.17007 55.2359 3.08496 55.5952 3.08496C55.7087 3.08496 55.8245 3.09442 55.9427 3.11333C56.0609 3.12751 56.1579 3.14879 56.2335 3.17716Z" fill="#999999"/>
<path d="M48.8284 9.17007V5.75163C48.8284 5.50576 48.7882 5.29536 48.7079 5.12042C48.6275 4.94075 48.5022 4.80127 48.332 4.70198C48.1665 4.60269 47.9514 4.55305 47.6866 4.55305C47.4596 4.55305 47.2634 4.59324 47.0979 4.67361C46.9325 4.74926 46.8048 4.86037 46.715 5.00695C46.6251 5.14879 46.5802 5.31664 46.5802 5.51049H44.5377C44.5377 5.18425 44.6133 4.87456 44.7646 4.58141C44.9159 4.28827 45.1358 4.03059 45.4242 3.80837C45.7126 3.58141 46.0554 3.40411 46.4526 3.27645C46.8544 3.14879 47.3036 3.08496 47.8001 3.08496C48.3958 3.08496 48.9254 3.18425 49.3887 3.38283C49.8521 3.58141 50.2161 3.87929 50.4809 4.27645C50.7504 4.67361 50.8852 5.17007 50.8852 5.76581V9.0495C50.8852 9.4703 50.9112 9.81546 50.9632 10.085C51.0152 10.3497 51.0908 10.5814 51.1901 10.78V10.9006H49.1263C49.027 10.6925 48.9514 10.4325 48.8994 10.1204C48.8521 9.80364 48.8284 9.48685 48.8284 9.17007ZM49.0979 6.2268L49.1121 7.38283H47.9703C47.7008 7.38283 47.4667 7.41357 47.2682 7.47503C47.0696 7.5365 46.9065 7.62397 46.7788 7.73744C46.6511 7.84619 46.5566 7.97385 46.4951 8.12042C46.4384 8.26699 46.41 8.42775 46.41 8.60269C46.41 8.77763 46.4502 8.93602 46.5306 9.07787C46.6109 9.21498 46.7268 9.32373 46.8781 9.40411C47.0294 9.47976 47.2067 9.51759 47.41 9.51759C47.7173 9.51759 47.9845 9.45612 48.2114 9.33319C48.4384 9.21026 48.6133 9.05896 48.7362 8.87929C48.8639 8.69962 48.9301 8.52941 48.9348 8.36865L49.4738 9.2339C49.3982 9.42775 49.2942 9.6287 49.1618 9.83673C49.0341 10.0448 48.871 10.241 48.6724 10.4254C48.4738 10.6051 48.2351 10.754 47.9561 10.8722C47.6771 10.9857 47.3462 11.0424 46.9632 11.0424C46.4762 11.0424 46.0341 10.9455 45.6369 10.7516C45.2445 10.553 44.9325 10.2812 44.7008 9.93602C44.4738 9.58614 44.3604 9.18898 44.3604 8.74454C44.3604 8.34264 44.436 7.98567 44.5873 7.67361C44.7386 7.36156 44.9608 7.09915 45.254 6.88638C45.5518 6.66889 45.923 6.50576 46.3674 6.39702C46.8119 6.28354 47.3273 6.2268 47.9135 6.2268H49.0979Z" fill="#999999"/>
<path d="M39.1402 4.70198V13.8509H37.0977V3.2268H38.9913L39.1402 4.70198ZM43.9984 6.97858V7.12751C43.9984 7.68543 43.9322 8.20316 43.7998 8.68071C43.6721 9.15825 43.483 9.57432 43.2324 9.92893C42.9818 10.2788 42.6698 10.553 42.2962 10.7516C41.9274 10.9455 41.5019 11.0424 41.0196 11.0424C40.5516 11.0424 40.1449 10.9478 39.7998 10.7587C39.4546 10.5696 39.1639 10.3048 38.9274 9.96439C38.6958 9.61924 38.509 9.21971 38.3672 8.76581C38.2253 8.31191 38.1166 7.82491 38.0409 7.30482V6.91475C38.1166 6.35683 38.2253 5.84619 38.3672 5.38283C38.509 4.91475 38.6958 4.51049 38.9274 4.17007C39.1639 3.82491 39.4523 3.55777 39.7927 3.36865C40.1378 3.17952 40.5421 3.08496 41.0055 3.08496C41.4925 3.08496 41.9204 3.17716 42.2891 3.36156C42.6627 3.54595 42.9747 3.81073 43.2253 4.15588C43.4806 4.50104 43.6721 4.91238 43.7998 5.38993C43.9322 5.86747 43.9984 6.39702 43.9984 6.97858ZM41.9487 7.12751V6.97858C41.9487 6.65234 41.9204 6.3521 41.8636 6.07787C41.8116 5.79891 41.7265 5.55541 41.6083 5.34737C41.4948 5.13933 41.3435 4.97858 41.1544 4.8651C40.97 4.7469 40.7454 4.6878 40.4806 4.6878C40.2017 4.6878 39.9629 4.73272 39.7643 4.82255C39.5705 4.91238 39.4121 5.04241 39.2891 5.21262C39.1662 5.38283 39.074 5.58614 39.0125 5.82255C38.9511 6.05896 38.9133 6.3261 38.8991 6.62397V7.60978C38.9227 7.95967 38.9889 8.27409 39.0977 8.55305C39.2064 8.82728 39.3743 9.04477 39.6012 9.20553C39.8282 9.36628 40.126 9.44666 40.4948 9.44666C40.7643 9.44666 40.9913 9.38756 41.1757 9.26936C41.3601 9.14643 41.509 8.97858 41.6225 8.76581C41.7407 8.55305 41.8234 8.30718 41.8707 8.02822C41.9227 7.74926 41.9487 7.44903 41.9487 7.12751Z" fill="#999999"/>
<path d="M34.2314 8.19857C34.2314 8.01418 34.203 7.84869 34.1463 7.70212C34.0942 7.55082 33.995 7.4137 33.8484 7.29077C33.7018 7.16311 33.4961 7.03782 33.2314 6.91489C32.9666 6.79195 32.6238 6.6643 32.203 6.53191C31.7349 6.38061 31.2905 6.21039 30.8697 6.02127C30.4536 5.83214 30.0848 5.61229 29.7633 5.36169C29.4465 5.10638 29.1959 4.81087 29.0115 4.47517C28.8318 4.13947 28.742 3.7494 28.742 3.30496C28.742 2.8747 28.8366 2.48463 29.0257 2.13474C29.2148 1.78013 29.4796 1.47753 29.82 1.22694C30.1604 0.971624 30.5623 0.775407 31.0257 0.638291C31.4938 0.501175 32.0068 0.432617 32.5647 0.432617C33.3259 0.432617 33.9902 0.569733 34.5576 0.843965C35.125 1.1182 35.5647 1.49408 35.8768 1.97162C36.1935 2.44917 36.3519 2.99526 36.3519 3.60992H34.2385C34.2385 3.30732 34.1746 3.04255 34.047 2.8156C33.924 2.58392 33.7349 2.40188 33.4796 2.2695C33.229 2.13711 32.9122 2.07091 32.5292 2.07091C32.1604 2.07091 31.8531 2.12765 31.6072 2.24113C31.3614 2.34987 31.177 2.49881 31.0541 2.68794C30.9311 2.87233 30.8697 3.08037 30.8697 3.31205C30.8697 3.48699 30.9122 3.64538 30.9973 3.78723C31.0872 3.92907 31.2195 4.06146 31.3945 4.18439C31.5694 4.30732 31.7846 4.42316 32.0399 4.53191C32.2952 4.64065 32.5907 4.74704 32.9264 4.85106C33.489 5.02127 33.9831 5.21276 34.4087 5.42552C34.8389 5.63829 35.1983 5.87706 35.4867 6.14184C35.7751 6.40661 35.9926 6.70685 36.1392 7.04255C36.2857 7.37824 36.359 7.75886 36.359 8.18439C36.359 8.63356 36.2716 9.03545 36.0966 9.39006C35.9217 9.74467 35.6687 10.0449 35.3377 10.2908C35.0068 10.5366 34.612 10.7234 34.1533 10.8511C33.6947 10.9787 33.1817 11.0425 32.6143 11.0425C32.1037 11.0425 31.6002 10.9764 31.1037 10.844C30.6072 10.7068 30.1557 10.5012 29.7491 10.2269C29.3472 9.95271 29.0257 9.60283 28.7846 9.1773C28.5434 8.75177 28.4229 8.24822 28.4229 7.66666H30.5576C30.5576 7.98817 30.6072 8.26004 30.7065 8.48226C30.8058 8.70448 30.9453 8.88415 31.125 9.02127C31.3094 9.15839 31.5269 9.25768 31.7775 9.31914C32.0328 9.38061 32.3117 9.41134 32.6143 9.41134C32.9831 9.41134 33.2857 9.35933 33.5221 9.25531C33.7633 9.15129 33.9406 9.00708 34.0541 8.82269C34.1723 8.63829 34.2314 8.43025 34.2314 8.19857Z" fill="#999999"/>
<path d="M4.12207 23.5986C4.12207 23.4684 4.09277 23.348 4.03418 23.2373C3.97884 23.1234 3.86328 23.0208 3.6875 22.9297C3.51497 22.8353 3.25456 22.7539 2.90625 22.6855C2.61328 22.6237 2.34798 22.5505 2.11035 22.4658C1.87598 22.3812 1.67578 22.2786 1.50977 22.1582C1.34701 22.0378 1.22168 21.8962 1.13379 21.7334C1.0459 21.5706 1.00195 21.3802 1.00195 21.1621C1.00195 20.9538 1.04753 20.7568 1.13867 20.5713C1.23307 20.3857 1.36491 20.2214 1.53418 20.0781C1.70671 19.9349 1.91341 19.8226 2.1543 19.7412C2.39518 19.6598 2.66374 19.6191 2.95996 19.6191C3.38314 19.6191 3.74447 19.694 4.04395 19.8438C4.34342 19.9935 4.57292 20.1937 4.73242 20.4443C4.89193 20.6917 4.97168 20.9668 4.97168 21.2695H4.06836C4.06836 21.123 4.02441 20.9814 3.93652 20.8447C3.85189 20.7048 3.72656 20.5892 3.56055 20.498C3.39779 20.4069 3.19759 20.3613 2.95996 20.3613C2.70931 20.3613 2.50586 20.4004 2.34961 20.4785C2.19661 20.5534 2.08431 20.6494 2.0127 20.7666C1.94434 20.8838 1.91016 21.0075 1.91016 21.1377C1.91016 21.2354 1.92643 21.3232 1.95898 21.4014C1.99479 21.4762 2.05664 21.5462 2.14453 21.6113C2.23242 21.6732 2.35612 21.7318 2.51562 21.7871C2.67513 21.8424 2.87858 21.8978 3.12598 21.9531C3.55892 22.0508 3.91536 22.168 4.19531 22.3047C4.47526 22.4414 4.68359 22.609 4.82031 22.8076C4.95703 23.0062 5.02539 23.2471 5.02539 23.5303C5.02539 23.7614 4.97656 23.973 4.87891 24.165C4.78451 24.3571 4.64616 24.5231 4.46387 24.6631C4.28483 24.7998 4.06999 24.9072 3.81934 24.9854C3.57194 25.0602 3.29362 25.0977 2.98438 25.0977C2.51888 25.0977 2.125 25.0146 1.80273 24.8486C1.48047 24.6826 1.23633 24.4678 1.07031 24.2041C0.904297 23.9404 0.821289 23.6621 0.821289 23.3691H1.72949C1.74251 23.6165 1.81413 23.8135 1.94434 23.96C2.07454 24.1032 2.23405 24.2057 2.42285 24.2676C2.61165 24.3262 2.79883 24.3555 2.98438 24.3555C3.23177 24.3555 3.43848 24.3229 3.60449 24.2578C3.77376 24.1927 3.90234 24.1032 3.99023 23.9893C4.07812 23.8753 4.12207 23.7451 4.12207 23.5986ZM7.11523 20.7324V27.0312H6.20703V19.7168H7.03711L7.11523 20.7324ZM10.6748 22.3145V22.417C10.6748 22.8011 10.6292 23.1576 10.5381 23.4863C10.4469 23.8118 10.3135 24.0951 10.1377 24.3359C9.96517 24.5768 9.75195 24.764 9.49805 24.8975C9.24414 25.0309 8.9528 25.0977 8.62402 25.0977C8.28874 25.0977 7.99251 25.0423 7.73535 24.9316C7.47819 24.821 7.26009 24.6598 7.08105 24.4482C6.90202 24.2367 6.75879 23.9827 6.65137 23.6865C6.5472 23.3903 6.47559 23.0566 6.43652 22.6855V22.1387C6.47559 21.748 6.54883 21.3981 6.65625 21.0889C6.76367 20.7796 6.90527 20.516 7.08105 20.2979C7.26009 20.0765 7.47656 19.9089 7.73047 19.7949C7.98438 19.6777 8.27734 19.6191 8.60938 19.6191C8.94141 19.6191 9.236 19.6842 9.49316 19.8145C9.75033 19.9414 9.9668 20.1237 10.1426 20.3613C10.3184 20.599 10.4502 20.8838 10.5381 21.2158C10.6292 21.5446 10.6748 21.9108 10.6748 22.3145ZM9.7666 22.417V22.3145C9.7666 22.0508 9.73893 21.8034 9.68359 21.5723C9.62826 21.3379 9.54199 21.1328 9.4248 20.957C9.31087 20.778 9.16439 20.638 8.98535 20.5371C8.80632 20.4329 8.5931 20.3809 8.3457 20.3809C8.11784 20.3809 7.91927 20.4199 7.75 20.498C7.58398 20.5762 7.44238 20.682 7.3252 20.8154C7.20801 20.9456 7.11198 21.0954 7.03711 21.2646C6.96549 21.4307 6.91178 21.6032 6.87598 21.7822V23.0469C6.94108 23.2747 7.03223 23.4896 7.14941 23.6914C7.2666 23.89 7.42285 24.0511 7.61816 24.1748C7.81348 24.2952 8.05924 24.3555 8.35547 24.3555C8.59961 24.3555 8.80957 24.305 8.98535 24.2041C9.16439 24.0999 9.31087 23.9583 9.4248 23.7793C9.54199 23.6003 9.62826 23.3952 9.68359 23.1641C9.73893 22.9297 9.7666 22.6807 9.7666 22.417ZM14.9424 24.0967V21.377C14.9424 21.1686 14.9001 20.988 14.8154 20.835C14.734 20.6787 14.6104 20.5583 14.4443 20.4736C14.2783 20.389 14.0732 20.3467 13.8291 20.3467C13.6012 20.3467 13.401 20.3857 13.2285 20.4639C13.0592 20.542 12.9258 20.6445 12.8281 20.7715C12.7337 20.8984 12.6865 21.0352 12.6865 21.1816H11.7832C11.7832 20.9928 11.832 20.8057 11.9297 20.6201C12.0273 20.4346 12.1673 20.2669 12.3496 20.1172C12.5352 19.9642 12.7565 19.8438 13.0137 19.7559C13.2741 19.6647 13.5638 19.6191 13.8828 19.6191C14.2669 19.6191 14.6055 19.6842 14.8984 19.8145C15.1947 19.9447 15.4258 20.1416 15.5918 20.4053C15.7611 20.6657 15.8457 20.9928 15.8457 21.3867V23.8477C15.8457 24.0234 15.8604 24.2106 15.8896 24.4092C15.9222 24.6077 15.9694 24.7786 16.0312 24.9219V25H15.0889C15.0433 24.8958 15.0075 24.7575 14.9814 24.585C14.9554 24.4092 14.9424 24.2464 14.9424 24.0967ZM15.0986 21.7969L15.1084 22.4316H14.1953C13.9382 22.4316 13.7087 22.4528 13.5068 22.4951C13.305 22.5342 13.1357 22.5944 12.999 22.6758C12.8623 22.7572 12.7581 22.8597 12.6865 22.9834C12.6149 23.1038 12.5791 23.2454 12.5791 23.4082C12.5791 23.5742 12.6165 23.7256 12.6914 23.8623C12.7663 23.999 12.8786 24.1081 13.0283 24.1895C13.1813 24.2676 13.3685 24.3066 13.5898 24.3066C13.8665 24.3066 14.1107 24.248 14.3223 24.1309C14.5339 24.0137 14.7015 23.8704 14.8252 23.7012C14.9521 23.5319 15.0205 23.3675 15.0303 23.208L15.416 23.6426C15.3932 23.7793 15.3314 23.9307 15.2305 24.0967C15.1296 24.2627 14.9945 24.4222 14.8252 24.5752C14.6592 24.7249 14.4606 24.8503 14.2295 24.9512C14.0016 25.0488 13.7445 25.0977 13.458 25.0977C13.0999 25.0977 12.7858 25.0277 12.5156 24.8877C12.2487 24.7477 12.0404 24.5605 11.8906 24.3262C11.7441 24.0885 11.6709 23.8232 11.6709 23.5303C11.6709 23.2471 11.7262 22.998 11.8369 22.7832C11.9476 22.5651 12.1071 22.3844 12.3154 22.2412C12.5238 22.0947 12.7744 21.984 13.0674 21.9092C13.3604 21.8343 13.6875 21.7969 14.0488 21.7969H15.0986ZM18.1699 20.5469V25H17.2666V19.7168H18.1455L18.1699 20.5469ZM19.8203 19.6875L19.8154 20.5273C19.7406 20.5111 19.6689 20.5013 19.6006 20.498C19.5355 20.4915 19.4606 20.4883 19.376 20.4883C19.1676 20.4883 18.9837 20.5208 18.8242 20.5859C18.6647 20.651 18.5296 20.7422 18.4189 20.8594C18.3083 20.9766 18.2204 21.1165 18.1553 21.2793C18.0934 21.4388 18.0527 21.6146 18.0332 21.8066L17.7793 21.9531C17.7793 21.6341 17.8102 21.3346 17.8721 21.0547C17.9372 20.7747 18.0365 20.5273 18.1699 20.3125C18.3034 20.0944 18.4727 19.9251 18.6777 19.8047C18.8861 19.681 19.1335 19.6191 19.4199 19.6191C19.485 19.6191 19.5599 19.6273 19.6445 19.6436C19.7292 19.6566 19.7878 19.6712 19.8203 19.6875ZM21.5635 17.5V25H20.6553V17.5H21.5635ZM24.791 19.7168L22.4863 22.1826L21.1973 23.5205L21.124 22.5586L22.0469 21.4551L23.6875 19.7168H24.791ZM23.9658 25L22.0811 22.4805L22.5498 21.6748L25.0303 25H23.9658ZM26.7051 19.7168V25H25.7969V19.7168H26.7051ZM25.7285 18.3154C25.7285 18.1689 25.7725 18.0452 25.8604 17.9443C25.9515 17.8434 26.085 17.793 26.2607 17.793C26.4333 17.793 26.5651 17.8434 26.6562 17.9443C26.7507 18.0452 26.7979 18.1689 26.7979 18.3154C26.7979 18.4554 26.7507 18.5758 26.6562 18.6768C26.5651 18.7744 26.4333 18.8232 26.2607 18.8232C26.085 18.8232 25.9515 18.7744 25.8604 18.6768C25.7725 18.5758 25.7285 18.4554 25.7285 18.3154ZM29.0586 20.8447V25H28.1553V19.7168H29.0098L29.0586 20.8447ZM28.8438 22.1582L28.4678 22.1436C28.471 21.7822 28.5247 21.4486 28.6289 21.1426C28.7331 20.8333 28.8796 20.5648 29.0684 20.3369C29.2572 20.109 29.4818 19.9333 29.7422 19.8096C30.0059 19.6826 30.2972 19.6191 30.6162 19.6191C30.8766 19.6191 31.111 19.6549 31.3193 19.7266C31.5277 19.7949 31.7051 19.9056 31.8516 20.0586C32.0013 20.2116 32.1152 20.4102 32.1934 20.6543C32.2715 20.8952 32.3105 21.1898 32.3105 21.5381V25H31.4023V21.5283C31.4023 21.2516 31.3617 21.0303 31.2803 20.8643C31.1989 20.695 31.0801 20.5729 30.9238 20.498C30.7676 20.4199 30.5755 20.3809 30.3477 20.3809C30.123 20.3809 29.918 20.4281 29.7324 20.5225C29.5501 20.6169 29.3923 20.7471 29.2588 20.9131C29.1286 21.0791 29.026 21.2695 28.9512 21.4844C28.8796 21.696 28.8438 21.9206 28.8438 22.1582ZM37.1055 19.7168H37.9258V24.8877C37.9258 25.3532 37.8314 25.7503 37.6426 26.0791C37.4538 26.4079 37.1901 26.6569 36.8516 26.8262C36.5163 26.9987 36.1289 27.085 35.6895 27.085C35.5072 27.085 35.2923 27.0557 35.0449 26.9971C34.8008 26.9417 34.5599 26.8457 34.3223 26.709C34.0879 26.5755 33.891 26.3949 33.7314 26.167L34.2051 25.6299C34.4264 25.8968 34.6576 26.0824 34.8984 26.1865C35.1426 26.2907 35.3835 26.3428 35.6211 26.3428C35.9076 26.3428 36.1549 26.2891 36.3633 26.1816C36.5716 26.0742 36.7327 25.9147 36.8467 25.7031C36.9639 25.4948 37.0225 25.2376 37.0225 24.9316V20.8789L37.1055 19.7168ZM33.4678 22.417V22.3145C33.4678 21.9108 33.515 21.5446 33.6094 21.2158C33.707 20.8838 33.8454 20.599 34.0244 20.3613C34.2067 20.1237 34.4264 19.9414 34.6836 19.8145C34.9408 19.6842 35.2305 19.6191 35.5527 19.6191C35.8848 19.6191 36.1745 19.6777 36.4219 19.7949C36.6725 19.9089 36.8841 20.0765 37.0566 20.2979C37.2324 20.516 37.3708 20.7796 37.4717 21.0889C37.5726 21.3981 37.6426 21.748 37.6816 22.1387V22.5879C37.6458 22.9753 37.5758 23.3236 37.4717 23.6328C37.3708 23.9421 37.2324 24.2057 37.0566 24.4238C36.8841 24.6419 36.6725 24.8096 36.4219 24.9268C36.1712 25.0407 35.8783 25.0977 35.543 25.0977C35.2272 25.0977 34.9408 25.0309 34.6836 24.8975C34.4297 24.764 34.2116 24.5768 34.0293 24.3359C33.847 24.0951 33.707 23.8118 33.6094 23.4863C33.515 23.1576 33.4678 22.8011 33.4678 22.417ZM34.3711 22.3145V22.417C34.3711 22.6807 34.3971 22.9281 34.4492 23.1592C34.5046 23.3903 34.5876 23.5938 34.6982 23.7695C34.8122 23.9453 34.957 24.0837 35.1328 24.1846C35.3086 24.2822 35.5186 24.3311 35.7627 24.3311C36.0622 24.3311 36.3096 24.2676 36.5049 24.1406C36.7002 24.0137 36.8548 23.846 36.9688 23.6377C37.0859 23.4294 37.1771 23.2031 37.2422 22.959V21.7822C37.2064 21.6032 37.151 21.4307 37.0762 21.2646C37.0046 21.0954 36.9102 20.9456 36.793 20.8154C36.679 20.682 36.5374 20.5762 36.3682 20.498C36.1989 20.4199 36.0003 20.3809 35.7725 20.3809C35.5251 20.3809 35.3118 20.4329 35.1328 20.5371C34.957 20.638 34.8122 20.778 34.6982 20.957C34.5876 21.1328 34.5046 21.3379 34.4492 21.5723C34.3971 21.8034 34.3711 22.0508 34.3711 22.3145ZM43.9902 19.7168V20.4102H41.1338V19.7168H43.9902ZM42.1006 18.4326H43.0039V23.6914C43.0039 23.8704 43.0316 24.0055 43.0869 24.0967C43.1423 24.1878 43.2139 24.248 43.3018 24.2773C43.3896 24.3066 43.484 24.3213 43.585 24.3213C43.6598 24.3213 43.738 24.3148 43.8193 24.3018C43.904 24.2855 43.9674 24.2725 44.0098 24.2627L44.0146 25C43.943 25.0228 43.8486 25.0439 43.7314 25.0635C43.6175 25.0863 43.4792 25.0977 43.3164 25.0977C43.0951 25.0977 42.8916 25.0537 42.7061 24.9658C42.5205 24.8779 42.3724 24.7314 42.2617 24.5264C42.1543 24.318 42.1006 24.0381 42.1006 23.6865V18.4326ZM45.9531 17.5V25H45.0498V17.5H45.9531ZM45.7383 22.1582L45.3623 22.1436C45.3656 21.7822 45.4193 21.4486 45.5234 21.1426C45.6276 20.8333 45.7741 20.5648 45.9629 20.3369C46.1517 20.109 46.3763 19.9333 46.6367 19.8096C46.9004 19.6826 47.1917 19.6191 47.5107 19.6191C47.7712 19.6191 48.0055 19.6549 48.2139 19.7266C48.4222 19.7949 48.5996 19.9056 48.7461 20.0586C48.8958 20.2116 49.0098 20.4102 49.0879 20.6543C49.166 20.8952 49.2051 21.1898 49.2051 21.5381V25H48.2969V21.5283C48.2969 21.2516 48.2562 21.0303 48.1748 20.8643C48.0934 20.695 47.9746 20.5729 47.8184 20.498C47.6621 20.4199 47.4701 20.3809 47.2422 20.3809C47.0176 20.3809 46.8125 20.4281 46.627 20.5225C46.4447 20.6169 46.2868 20.7471 46.1533 20.9131C46.0231 21.0791 45.9206 21.2695 45.8457 21.4844C45.7741 21.696 45.7383 21.9206 45.7383 22.1582ZM52.75 25.0977C52.3822 25.0977 52.0485 25.0358 51.749 24.9121C51.4528 24.7852 51.1973 24.6077 50.9824 24.3799C50.7708 24.152 50.6081 23.8818 50.4941 23.5693C50.3802 23.2568 50.3232 22.915 50.3232 22.5439V22.3389C50.3232 21.9092 50.3867 21.5267 50.5137 21.1914C50.6406 20.8529 50.8132 20.5664 51.0312 20.332C51.2493 20.0977 51.4967 19.9202 51.7734 19.7998C52.0501 19.6794 52.3366 19.6191 52.6328 19.6191C53.0104 19.6191 53.3359 19.6842 53.6094 19.8145C53.8861 19.9447 54.1123 20.127 54.2881 20.3613C54.4639 20.5924 54.5941 20.8659 54.6787 21.1816C54.7633 21.4941 54.8057 21.8359 54.8057 22.207V22.6123H50.8604V21.875H53.9023V21.8066C53.8893 21.5723 53.8405 21.3444 53.7559 21.123C53.6745 20.9017 53.5443 20.7194 53.3652 20.5762C53.1862 20.4329 52.9421 20.3613 52.6328 20.3613C52.4277 20.3613 52.2389 20.4053 52.0664 20.4932C51.8939 20.5778 51.7458 20.7048 51.6221 20.874C51.4984 21.0433 51.4023 21.25 51.334 21.4941C51.2656 21.7383 51.2314 22.0199 51.2314 22.3389V22.5439C51.2314 22.7946 51.2656 23.0306 51.334 23.252C51.4056 23.4701 51.5081 23.6621 51.6416 23.8281C51.7783 23.9941 51.9427 24.1243 52.1348 24.2188C52.3301 24.3132 52.5514 24.3604 52.7988 24.3604C53.1178 24.3604 53.388 24.2952 53.6094 24.165C53.8307 24.0348 54.0244 23.8607 54.1904 23.6426L54.7373 24.0771C54.6234 24.2497 54.4785 24.4141 54.3027 24.5703C54.127 24.7266 53.9105 24.8535 53.6533 24.9512C53.3994 25.0488 53.0983 25.0977 52.75 25.0977ZM60.4551 24.3555C60.6699 24.3555 60.8685 24.3115 61.0508 24.2236C61.2331 24.1357 61.3828 24.0153 61.5 23.8623C61.6172 23.7061 61.6839 23.5286 61.7002 23.3301H62.5596C62.5433 23.6426 62.4375 23.9339 62.2422 24.2041C62.0501 24.471 61.7979 24.6875 61.4854 24.8535C61.1729 25.0163 60.8294 25.0977 60.4551 25.0977C60.0579 25.0977 59.7113 25.0277 59.415 24.8877C59.1221 24.7477 58.8779 24.5557 58.6826 24.3115C58.4906 24.0674 58.3457 23.7874 58.248 23.4717C58.1536 23.1527 58.1064 22.8158 58.1064 22.4609V22.2559C58.1064 21.901 58.1536 21.5658 58.248 21.25C58.3457 20.931 58.4906 20.6494 58.6826 20.4053C58.8779 20.1611 59.1221 19.9691 59.415 19.8291C59.7113 19.6891 60.0579 19.6191 60.4551 19.6191C60.8685 19.6191 61.2298 19.7038 61.5391 19.873C61.8483 20.0391 62.0908 20.2669 62.2666 20.5566C62.4456 20.8431 62.5433 21.1686 62.5596 21.5332H61.7002C61.6839 21.3151 61.6221 21.1182 61.5146 20.9424C61.4105 20.7666 61.2673 20.6266 61.085 20.5225C60.9059 20.415 60.696 20.3613 60.4551 20.3613C60.1784 20.3613 59.9456 20.4167 59.7568 20.5273C59.5713 20.6348 59.4232 20.7812 59.3125 20.9668C59.2051 21.1491 59.127 21.3525 59.0781 21.5771C59.0326 21.7985 59.0098 22.0247 59.0098 22.2559V22.4609C59.0098 22.6921 59.0326 22.9199 59.0781 23.1445C59.1237 23.3691 59.2002 23.5726 59.3076 23.7549C59.4183 23.9372 59.5664 24.0837 59.752 24.1943C59.9408 24.3018 60.1751 24.3555 60.4551 24.3555ZM64.4785 20.5469V25H63.5752V19.7168H64.4541L64.4785 20.5469ZM66.1289 19.6875L66.124 20.5273C66.0492 20.5111 65.9775 20.5013 65.9092 20.498C65.8441 20.4915 65.7692 20.4883 65.6846 20.4883C65.4762 20.4883 65.2923 20.5208 65.1328 20.5859C64.9733 20.651 64.8382 20.7422 64.7275 20.8594C64.6169 20.9766 64.529 21.1165 64.4639 21.2793C64.402 21.4388 64.3613 21.6146 64.3418 21.8066L64.0879 21.9531C64.0879 21.6341 64.1188 21.3346 64.1807 21.0547C64.2458 20.7747 64.3451 20.5273 64.4785 20.3125C64.612 20.0944 64.7812 19.9251 64.9863 19.8047C65.1947 19.681 65.4421 19.6191 65.7285 19.6191C65.7936 19.6191 65.8685 19.6273 65.9531 19.6436C66.0378 19.6566 66.0964 19.6712 66.1289 19.6875ZM69.0586 25.0977C68.6908 25.0977 68.3571 25.0358 68.0576 24.9121C67.7614 24.7852 67.5059 24.6077 67.291 24.3799C67.0794 24.152 66.9167 23.8818 66.8027 23.5693C66.6888 23.2568 66.6318 22.915 66.6318 22.5439V22.3389C66.6318 21.9092 66.6953 21.5267 66.8223 21.1914C66.9492 20.8529 67.1217 20.5664 67.3398 20.332C67.5579 20.0977 67.8053 19.9202 68.082 19.7998C68.3587 19.6794 68.6452 19.6191 68.9414 19.6191C69.319 19.6191 69.6445 19.6842 69.918 19.8145C70.1947 19.9447 70.4209 20.127 70.5967 20.3613C70.7725 20.5924 70.9027 20.8659 70.9873 21.1816C71.0719 21.4941 71.1143 21.8359 71.1143 22.207V22.6123H67.1689V21.875H70.2109V21.8066C70.1979 21.5723 70.1491 21.3444 70.0645 21.123C69.9831 20.9017 69.8529 20.7194 69.6738 20.5762C69.4948 20.4329 69.2507 20.3613 68.9414 20.3613C68.7363 20.3613 68.5475 20.4053 68.375 20.4932C68.2025 20.5778 68.0544 20.7048 67.9307 20.874C67.807 21.0433 67.7109 21.25 67.6426 21.4941C67.5742 21.7383 67.54 22.0199 67.54 22.3389V22.5439C67.54 22.7946 67.5742 23.0306 67.6426 23.252C67.7142 23.4701 67.8167 23.6621 67.9502 23.8281C68.0869 23.9941 68.2513 24.1243 68.4434 24.2188C68.6387 24.3132 68.86 24.3604 69.1074 24.3604C69.4264 24.3604 69.6966 24.2952 69.918 24.165C70.1393 24.0348 70.333 23.8607 70.499 23.6426L71.0459 24.0771C70.932 24.2497 70.7871 24.4141 70.6113 24.5703C70.4355 24.7266 70.2191 24.8535 69.9619 24.9512C69.708 25.0488 69.4069 25.0977 69.0586 25.0977ZM75.2842 24.0967V21.377C75.2842 21.1686 75.2419 20.988 75.1572 20.835C75.0758 20.6787 74.9521 20.5583 74.7861 20.4736C74.6201 20.389 74.415 20.3467 74.1709 20.3467C73.943 20.3467 73.7428 20.3857 73.5703 20.4639C73.401 20.542 73.2676 20.6445 73.1699 20.7715C73.0755 20.8984 73.0283 21.0352 73.0283 21.1816H72.125C72.125 20.9928 72.1738 20.8057 72.2715 20.6201C72.3691 20.4346 72.5091 20.2669 72.6914 20.1172C72.877 19.9642 73.0983 19.8438 73.3555 19.7559C73.6159 19.6647 73.9056 19.6191 74.2246 19.6191C74.6087 19.6191 74.9473 19.6842 75.2402 19.8145C75.5365 19.9447 75.7676 20.1416 75.9336 20.4053C76.1029 20.6657 76.1875 20.9928 76.1875 21.3867V23.8477C76.1875 24.0234 76.2021 24.2106 76.2314 24.4092C76.264 24.6077 76.3112 24.7786 76.373 24.9219V25H75.4307C75.3851 24.8958 75.3493 24.7575 75.3232 24.585C75.2972 24.4092 75.2842 24.2464 75.2842 24.0967ZM75.4404 21.7969L75.4502 22.4316H74.5371C74.2799 22.4316 74.0505 22.4528 73.8486 22.4951C73.6468 22.5342 73.4775 22.5944 73.3408 22.6758C73.2041 22.7572 73.0999 22.8597 73.0283 22.9834C72.9567 23.1038 72.9209 23.2454 72.9209 23.4082C72.9209 23.5742 72.9583 23.7256 73.0332 23.8623C73.1081 23.999 73.2204 24.1081 73.3701 24.1895C73.5231 24.2676 73.7103 24.3066 73.9316 24.3066C74.2083 24.3066 74.4525 24.248 74.6641 24.1309C74.8757 24.0137 75.0433 23.8704 75.167 23.7012C75.2939 23.5319 75.3623 23.3675 75.3721 23.208L75.7578 23.6426C75.735 23.7793 75.6732 23.9307 75.5723 24.0967C75.4714 24.2627 75.3363 24.4222 75.167 24.5752C75.001 24.7249 74.8024 24.8503 74.5713 24.9512C74.3434 25.0488 74.0863 25.0977 73.7998 25.0977C73.4417 25.0977 73.1276 25.0277 72.8574 24.8877C72.5905 24.7477 72.3822 24.5605 72.2324 24.3262C72.0859 24.0885 72.0127 23.8232 72.0127 23.5303C72.0127 23.2471 72.068 22.998 72.1787 22.7832C72.2894 22.5651 72.4489 22.3844 72.6572 22.2412C72.8656 22.0947 73.1162 21.984 73.4092 21.9092C73.7021 21.8343 74.0293 21.7969 74.3906 21.7969H75.4404ZM79.8203 19.7168V20.4102H76.9639V19.7168H79.8203ZM77.9307 18.4326H78.834V23.6914C78.834 23.8704 78.8617 24.0055 78.917 24.0967C78.9723 24.1878 79.0439 24.248 79.1318 24.2773C79.2197 24.3066 79.3141 24.3213 79.415 24.3213C79.4899 24.3213 79.568 24.3148 79.6494 24.3018C79.734 24.2855 79.7975 24.2725 79.8398 24.2627L79.8447 25C79.7731 25.0228 79.6787 25.0439 79.5615 25.0635C79.4476 25.0863 79.3092 25.0977 79.1465 25.0977C78.9251 25.0977 78.7217 25.0537 78.5361 24.9658C78.3506 24.8779 78.2025 24.7314 78.0918 24.5264C77.9844 24.318 77.9307 24.0381 77.9307 23.6865V18.4326ZM80.543 22.417V22.3047C80.543 21.9238 80.5983 21.5706 80.709 21.2451C80.8197 20.9163 80.9792 20.6315 81.1875 20.3906C81.3958 20.1465 81.6481 19.9577 81.9443 19.8242C82.2406 19.6875 82.5726 19.6191 82.9404 19.6191C83.3115 19.6191 83.6452 19.6875 83.9414 19.8242C84.2409 19.9577 84.4948 20.1465 84.7031 20.3906C84.9147 20.6315 85.0758 20.9163 85.1865 21.2451C85.2972 21.5706 85.3525 21.9238 85.3525 22.3047V22.417C85.3525 22.7979 85.2972 23.151 85.1865 23.4766C85.0758 23.8021 84.9147 24.0869 84.7031 24.3311C84.4948 24.5719 84.2425 24.7607 83.9463 24.8975C83.6533 25.0309 83.3213 25.0977 82.9502 25.0977C82.5791 25.0977 82.2454 25.0309 81.9492 24.8975C81.653 24.7607 81.3991 24.5719 81.1875 24.3311C80.9792 24.0869 80.8197 23.8021 80.709 23.4766C80.5983 23.151 80.543 22.7979 80.543 22.417ZM81.4463 22.3047V22.417C81.4463 22.6807 81.4772 22.9297 81.5391 23.1641C81.6009 23.3952 81.6937 23.6003 81.8174 23.7793C81.9443 23.9583 82.1022 24.0999 82.291 24.2041C82.4798 24.305 82.6995 24.3555 82.9502 24.3555C83.1976 24.3555 83.4141 24.305 83.5996 24.2041C83.7884 24.0999 83.9447 23.9583 84.0684 23.7793C84.1921 23.6003 84.2848 23.3952 84.3467 23.1641C84.4118 22.9297 84.4443 22.6807 84.4443 22.417V22.3047C84.4443 22.0443 84.4118 21.7985 84.3467 21.5674C84.2848 21.333 84.1904 21.1263 84.0635 20.9473C83.9398 20.765 83.7835 20.6217 83.5947 20.5176C83.4092 20.4134 83.1911 20.3613 82.9404 20.3613C82.693 20.3613 82.4749 20.4134 82.2861 20.5176C82.1006 20.6217 81.9443 20.765 81.8174 20.9473C81.6937 21.1263 81.6009 21.333 81.5391 21.5674C81.4772 21.7985 81.4463 22.0443 81.4463 22.3047ZM87.3887 20.5469V25H86.4854V19.7168H87.3643L87.3887 20.5469ZM89.0391 19.6875L89.0342 20.5273C88.9593 20.5111 88.8877 20.5013 88.8193 20.498C88.7542 20.4915 88.6794 20.4883 88.5947 20.4883C88.3864 20.4883 88.2025 20.5208 88.043 20.5859C87.8835 20.651 87.7484 20.7422 87.6377 20.8594C87.527 20.9766 87.4391 21.1165 87.374 21.2793C87.3122 21.4388 87.2715 21.6146 87.252 21.8066L86.998 21.9531C86.998 21.6341 87.029 21.3346 87.0908 21.0547C87.1559 20.7747 87.2552 20.5273 87.3887 20.3125C87.5221 20.0944 87.6914 19.9251 87.8965 19.8047C88.1048 19.681 88.3522 19.6191 88.6387 19.6191C88.7038 19.6191 88.7786 19.6273 88.8633 19.6436C88.9479 19.6566 89.0065 19.6712 89.0391 19.6875ZM94.5469 25.0977C94.179 25.0977 93.8454 25.0358 93.5459 24.9121C93.2497 24.7852 92.9941 24.6077 92.7793 24.3799C92.5677 24.152 92.4049 23.8818 92.291 23.5693C92.1771 23.2568 92.1201 22.915 92.1201 22.5439V22.3389C92.1201 21.9092 92.1836 21.5267 92.3105 21.1914C92.4375 20.8529 92.61 20.5664 92.8281 20.332C93.0462 20.0977 93.2936 19.9202 93.5703 19.7998C93.847 19.6794 94.1335 19.6191 94.4297 19.6191C94.8073 19.6191 95.1328 19.6842 95.4062 19.8145C95.6829 19.9447 95.9092 20.127 96.085 20.3613C96.2607 20.5924 96.391 20.8659 96.4756 21.1816C96.5602 21.4941 96.6025 21.8359 96.6025 22.207V22.6123H92.6572V21.875H95.6992V21.8066C95.6862 21.5723 95.6374 21.3444 95.5527 21.123C95.4714 20.9017 95.3411 20.7194 95.1621 20.5762C94.9831 20.4329 94.7389 20.3613 94.4297 20.3613C94.2246 20.3613 94.0358 20.4053 93.8633 20.4932C93.6908 20.5778 93.5426 20.7048 93.4189 20.874C93.2952 21.0433 93.1992 21.25 93.1309 21.4941C93.0625 21.7383 93.0283 22.0199 93.0283 22.3389V22.5439C93.0283 22.7946 93.0625 23.0306 93.1309 23.252C93.2025 23.4701 93.305 23.6621 93.4385 23.8281C93.5752 23.9941 93.7396 24.1243 93.9316 24.2188C94.127 24.3132 94.3483 24.3604 94.5957 24.3604C94.9147 24.3604 95.1849 24.2952 95.4062 24.165C95.6276 24.0348 95.8213 23.8607 95.9873 23.6426L96.5342 24.0771C96.4202 24.2497 96.2754 24.4141 96.0996 24.5703C95.9238 24.7266 95.7074 24.8535 95.4502 24.9512C95.1963 25.0488 94.8952 25.0977 94.5469 25.0977ZM99.7715 24.3555C99.9863 24.3555 100.185 24.3115 100.367 24.2236C100.549 24.1357 100.699 24.0153 100.816 23.8623C100.934 23.7061 101 23.5286 101.017 23.3301H101.876C101.86 23.6426 101.754 23.9339 101.559 24.2041C101.367 24.471 101.114 24.6875 100.802 24.8535C100.489 25.0163 100.146 25.0977 99.7715 25.0977C99.3743 25.0977 99.0277 25.0277 98.7314 24.8877C98.4385 24.7477 98.1943 24.5557 97.999 24.3115C97.807 24.0674 97.6621 23.7874 97.5645 23.4717C97.4701 23.1527 97.4229 22.8158 97.4229 22.4609V22.2559C97.4229 21.901 97.4701 21.5658 97.5645 21.25C97.6621 20.931 97.807 20.6494 97.999 20.4053C98.1943 20.1611 98.4385 19.9691 98.7314 19.8291C99.0277 19.6891 99.3743 19.6191 99.7715 19.6191C100.185 19.6191 100.546 19.7038 100.855 19.873C101.165 20.0391 101.407 20.2669 101.583 20.5566C101.762 20.8431 101.86 21.1686 101.876 21.5332H101.017C101 21.3151 100.938 21.1182 100.831 20.9424C100.727 20.7666 100.584 20.6266 100.401 20.5225C100.222 20.415 100.012 20.3613 99.7715 20.3613C99.4948 20.3613 99.262 20.4167 99.0732 20.5273C98.8877 20.6348 98.7396 20.7812 98.6289 20.9668C98.5215 21.1491 98.4434 21.3525 98.3945 21.5771C98.349 21.7985 98.3262 22.0247 98.3262 22.2559V22.4609C98.3262 22.6921 98.349 22.9199 98.3945 23.1445C98.4401 23.3691 98.5166 23.5726 98.624 23.7549C98.7347 23.9372 98.8828 24.0837 99.0684 24.1943C99.2572 24.3018 99.4915 24.3555 99.7715 24.3555ZM102.652 22.417V22.3047C102.652 21.9238 102.708 21.5706 102.818 21.2451C102.929 20.9163 103.089 20.6315 103.297 20.3906C103.505 20.1465 103.757 19.9577 104.054 19.8242C104.35 19.6875 104.682 19.6191 105.05 19.6191C105.421 19.6191 105.755 19.6875 106.051 19.8242C106.35 19.9577 106.604 20.1465 106.812 20.3906C107.024 20.6315 107.185 20.9163 107.296 21.2451C107.407 21.5706 107.462 21.9238 107.462 22.3047V22.417C107.462 22.7979 107.407 23.151 107.296 23.4766C107.185 23.8021 107.024 24.0869 106.812 24.3311C106.604 24.5719 106.352 24.7607 106.056 24.8975C105.763 25.0309 105.431 25.0977 105.06 25.0977C104.688 25.0977 104.355 25.0309 104.059 24.8975C103.762 24.7607 103.508 24.5719 103.297 24.3311C103.089 24.0869 102.929 23.8021 102.818 23.4766C102.708 23.151 102.652 22.7979 102.652 22.417ZM103.556 22.3047V22.417C103.556 22.6807 103.587 22.9297 103.648 23.1641C103.71 23.3952 103.803 23.6003 103.927 23.7793C104.054 23.9583 104.212 24.0999 104.4 24.2041C104.589 24.305 104.809 24.3555 105.06 24.3555C105.307 24.3555 105.523 24.305 105.709 24.2041C105.898 24.0999 106.054 23.9583 106.178 23.7793C106.301 23.6003 106.394 23.3952 106.456 23.1641C106.521 22.9297 106.554 22.6807 106.554 22.417V22.3047C106.554 22.0443 106.521 21.7985 106.456 21.5674C106.394 21.333 106.3 21.1263 106.173 20.9473C106.049 20.765 105.893 20.6217 105.704 20.5176C105.519 20.4134 105.3 20.3613 105.05 20.3613C104.802 20.3613 104.584 20.4134 104.396 20.5176C104.21 20.6217 104.054 20.765 103.927 20.9473C103.803 21.1263 103.71 21.333 103.648 21.5674C103.587 21.7985 103.556 22.0443 103.556 22.3047ZM109.498 20.8447V25H108.595V19.7168H109.449L109.498 20.8447ZM109.283 22.1582L108.907 22.1436C108.91 21.7822 108.964 21.4486 109.068 21.1426C109.173 20.8333 109.319 20.5648 109.508 20.3369C109.697 20.109 109.921 19.9333 110.182 19.8096C110.445 19.6826 110.737 19.6191 111.056 19.6191C111.316 19.6191 111.55 19.6549 111.759 19.7266C111.967 19.7949 112.145 19.9056 112.291 20.0586C112.441 20.2116 112.555 20.4102 112.633 20.6543C112.711 20.8952 112.75 21.1898 112.75 21.5381V25H111.842V21.5283C111.842 21.2516 111.801 21.0303 111.72 20.8643C111.638 20.695 111.52 20.5729 111.363 20.498C111.207 20.4199 111.015 20.3809 110.787 20.3809C110.562 20.3809 110.357 20.4281 110.172 20.5225C109.99 20.6169 109.832 20.7471 109.698 20.9131C109.568 21.0791 109.465 21.2695 109.391 21.4844C109.319 21.696 109.283 21.9206 109.283 22.1582ZM113.883 22.417V22.3047C113.883 21.9238 113.938 21.5706 114.049 21.2451C114.16 20.9163 114.319 20.6315 114.527 20.3906C114.736 20.1465 114.988 19.9577 115.284 19.8242C115.58 19.6875 115.912 19.6191 116.28 19.6191C116.651 19.6191 116.985 19.6875 117.281 19.8242C117.581 19.9577 117.835 20.1465 118.043 20.3906C118.255 20.6315 118.416 20.9163 118.526 21.2451C118.637 21.5706 118.692 21.9238 118.692 22.3047V22.417C118.692 22.7979 118.637 23.151 118.526 23.4766C118.416 23.8021 118.255 24.0869 118.043 24.3311C117.835 24.5719 117.582 24.7607 117.286 24.8975C116.993 25.0309 116.661 25.0977 116.29 25.0977C115.919 25.0977 115.585 25.0309 115.289 24.8975C114.993 24.7607 114.739 24.5719 114.527 24.3311C114.319 24.0869 114.16 23.8021 114.049 23.4766C113.938 23.151 113.883 22.7979 113.883 22.417ZM114.786 22.3047V22.417C114.786 22.6807 114.817 22.9297 114.879 23.1641C114.941 23.3952 115.034 23.6003 115.157 23.7793C115.284 23.9583 115.442 24.0999 115.631 24.2041C115.82 24.305 116.039 24.3555 116.29 24.3555C116.537 24.3555 116.754 24.305 116.939 24.2041C117.128 24.0999 117.285 23.9583 117.408 23.7793C117.532 23.6003 117.625 23.3952 117.687 23.1641C117.752 22.9297 117.784 22.6807 117.784 22.417V22.3047C117.784 22.0443 117.752 21.7985 117.687 21.5674C117.625 21.333 117.53 21.1263 117.403 20.9473C117.28 20.765 117.123 20.6217 116.935 20.5176C116.749 20.4134 116.531 20.3613 116.28 20.3613C116.033 20.3613 115.815 20.4134 115.626 20.5176C115.44 20.6217 115.284 20.765 115.157 20.9473C115.034 21.1263 114.941 21.333 114.879 21.5674C114.817 21.7985 114.786 22.0443 114.786 22.3047ZM120.724 20.7666V25H119.815V19.7168H120.675L120.724 20.7666ZM120.538 22.1582L120.118 22.1436C120.121 21.7822 120.169 21.4486 120.26 21.1426C120.351 20.8333 120.486 20.5648 120.665 20.3369C120.844 20.109 121.067 19.9333 121.334 19.8096C121.601 19.6826 121.91 19.6191 122.262 19.6191C122.509 19.6191 122.737 19.6549 122.945 19.7266C123.154 19.7949 123.334 19.904 123.487 20.0537C123.64 20.2035 123.759 20.3955 123.844 20.6299C123.928 20.8643 123.971 21.1475 123.971 21.4795V25H123.067V21.5234C123.067 21.2467 123.02 21.0254 122.926 20.8594C122.835 20.6934 122.704 20.5729 122.535 20.498C122.366 20.4199 122.167 20.3809 121.939 20.3809C121.673 20.3809 121.45 20.4281 121.271 20.5225C121.091 20.6169 120.948 20.7471 120.841 20.9131C120.733 21.0791 120.655 21.2695 120.606 21.4844C120.561 21.696 120.538 21.9206 120.538 22.1582ZM123.961 21.6602L123.355 21.8457C123.359 21.556 123.406 21.2777 123.497 21.0107C123.591 20.7438 123.727 20.5062 123.902 20.2979C124.081 20.0895 124.301 19.9251 124.562 19.8047C124.822 19.681 125.12 19.6191 125.455 19.6191C125.738 19.6191 125.989 19.6566 126.207 19.7314C126.428 19.8063 126.614 19.9219 126.764 20.0781C126.917 20.2311 127.032 20.4281 127.11 20.6689C127.188 20.9098 127.228 21.1963 127.228 21.5283V25H126.319V21.5186C126.319 21.2223 126.272 20.9928 126.178 20.8301C126.087 20.6641 125.956 20.5485 125.787 20.4834C125.621 20.415 125.423 20.3809 125.191 20.3809C124.993 20.3809 124.817 20.415 124.664 20.4834C124.511 20.5518 124.382 20.6462 124.278 20.7666C124.174 20.8838 124.094 21.0189 124.039 21.1719C123.987 21.3249 123.961 21.4876 123.961 21.6602ZM130.079 24.4531L131.549 19.7168H132.516L130.396 25.8154C130.348 25.9456 130.283 26.0856 130.201 26.2354C130.123 26.3883 130.022 26.5332 129.898 26.6699C129.775 26.8066 129.625 26.9173 129.449 27.002C129.277 27.0898 129.07 27.1338 128.829 27.1338C128.757 27.1338 128.666 27.124 128.556 27.1045C128.445 27.085 128.367 27.0687 128.321 27.0557L128.316 26.3232C128.342 26.3265 128.383 26.3298 128.438 26.333C128.497 26.3395 128.538 26.3428 128.561 26.3428C128.766 26.3428 128.94 26.3151 129.083 26.2598C129.226 26.2077 129.347 26.1182 129.444 25.9912C129.545 25.8675 129.632 25.6966 129.703 25.4785L130.079 24.4531ZM129 19.7168L130.372 23.8184L130.606 24.7705L129.957 25.1025L128.014 19.7168H129Z" fill="#999999"/>
<defs>
<linearGradient id="paint0_linear_1_675" x1="66.1137" y1="2.92026" x2="67.4614" y2="10.6286" gradientUnits="userSpaceOnUse">
<stop stop-color="#DD2A7B"/>
<stop offset="0.41261" stop-color="#9747FF"/>
<stop offset="1" stop-color="#334CCA"/>
</linearGradient>
</defs>
</svg>
