<svg width="15" height="20" viewBox="0 0 15 20" fill="none" xmlns="http://www.w3.org/2000/svg">
<path d="M0 16.7884V15.2887H1.80775V7.82693C1.80775 6.4821 2.22283 5.29301 3.053 4.25968C3.883 3.22635 4.94867 2.56543 6.25 2.27693V1.65393C6.25 1.30676 6.37142 1.0116 6.61425 0.768431C6.85708 0.525431 7.15192 0.403931 7.49875 0.403931C7.84575 0.403931 8.141 0.525431 8.3845 0.768431C8.62817 1.0116 8.75 1.30676 8.75 1.65393V2.27693C10.0513 2.56543 11.117 3.22635 11.947 4.25968C12.7772 5.29301 13.1923 6.4821 13.1923 7.82693V15.2887H15V16.7884H0ZM7.49825 19.5962C7.00075 19.5962 6.57542 19.4192 6.22225 19.0652C5.86892 18.7112 5.69225 18.2856 5.69225 17.7884H9.30775C9.30775 18.2873 9.13058 18.7133 8.77625 19.0664C8.42192 19.4196 7.99592 19.5962 7.49825 19.5962ZM3.30775 15.2887H11.6923V7.82693C11.6923 6.66926 11.283 5.68118 10.4645 4.86268C9.64583 4.04401 8.65767 3.63468 7.5 3.63468C6.34233 3.63468 5.35417 4.04401 4.5355 4.86268C3.717 5.68118 3.30775 6.66926 3.30775 7.82693V15.2887Z" fill="#999999"/>
</svg>
