<svg width="16" height="16" viewBox="0 0 16 16" fill="none" xmlns="http://www.w3.org/2000/svg">
<path d="M2.16602 13.8337H3.21727L11.7477 5.30324L10.6964 4.25199L2.16602 12.7824V13.8337ZM0.916016 15.0837V12.2632L11.9081 1.27595C12.0341 1.16151 12.1732 1.0731 12.3254 1.01074C12.4778 0.948242 12.6375 0.916992 12.8046 0.916992C12.9716 0.916992 13.1334 0.946645 13.29 1.00595C13.4466 1.06526 13.5853 1.15956 13.706 1.28887L14.7237 2.31928C14.853 2.43998 14.9452 2.57887 15.0002 2.73595C15.0552 2.89303 15.0827 3.05012 15.0827 3.2072C15.0827 3.37484 15.0541 3.53477 14.9969 3.68699C14.9396 3.83935 14.8486 3.97852 14.7237 4.10449L3.73643 15.0837H0.916016ZM11.2129 4.78678L10.6964 4.25199L11.7477 5.30324L11.2129 4.78678Z" fill="#999999"/>
</svg>
